<svg width="600" height="600" viewBox="0 0 600 600" fill="none" xmlns="http://www.w3.org/2000/svg">
<circle cx="300" cy="300" r="300" fill="#FCFAFE"/>
<ellipse cx="233.104" cy="419.668" rx="12.4654" ry="12.4654" fill="#C7FF29"/>
<ellipse cx="233.104" cy="387.466" rx="12.4654" ry="12.4654" fill="#C7FF29"/>
<ellipse cx="304.156" cy="419.668" rx="12.4654" ry="12.4654" fill="#C7FF29"/>
<ellipse cx="304.156" cy="387.466" rx="12.4654" ry="12.4654" fill="#C7FF29"/>
<ellipse cx="375.208" cy="419.668" rx="12.4654" ry="12.4654" fill="#C7FF29"/>
<ellipse cx="375.208" cy="387.466" rx="12.4654" ry="12.4654" fill="#C7FF29"/>
<ellipse cx="241.828" cy="219.183" rx="12.4654" ry="12.4654" fill="#C7FF29"/>
<ellipse cx="241.828" cy="248.269" rx="12.4654" ry="12.4654" fill="#C7FF29"/>
<ellipse cx="300" cy="248.269" rx="12.4654" ry="12.4654" fill="#C7FF29"/>
<ellipse cx="300" cy="219.183" rx="12.4654" ry="12.4654" fill="#C7FF29"/>
<ellipse cx="300" cy="277.354" rx="12.4654" ry="12.4654" fill="#C7FF29"/>
<ellipse cx="300" cy="306.44" rx="12.4654" ry="12.4654" fill="#C7FF29"/>
<ellipse cx="300" cy="335.526" rx="12.4654" ry="12.4654" fill="#C7FF29"/>
<ellipse cx="358.173" cy="248.269" rx="12.4654" ry="12.4654" fill="#C7FF29"/>
<ellipse cx="358.173" cy="219.183" rx="12.4654" ry="12.4654" fill="#C7FF29"/>
<ellipse cx="358.173" cy="190.097" rx="12.4654" ry="12.4654" fill="#C7FF29"/>
<ellipse cx="358.173" cy="277.354" rx="12.4654" ry="12.4654" fill="#C7FF29"/>
<ellipse cx="358.173" cy="306.44" rx="12.4654" ry="12.4654" fill="#C7FF29"/>
<ellipse cx="358.173" cy="335.526" rx="12.4654" ry="12.4654" fill="#C7FF29"/>
<ellipse cx="416.344" cy="248.269" rx="12.4654" ry="12.4654" fill="#C7FF29"/>
<ellipse cx="445.43" cy="248.269" rx="12.4654" ry="12.4654" fill="#C7FF29"/>
<ellipse cx="416.344" cy="219.183" rx="12.4654" ry="12.4654" fill="#C7FF29"/>
<ellipse cx="416.344" cy="277.354" rx="12.4654" ry="12.4654" fill="#C7FF29"/>
<ellipse cx="445.43" cy="277.354" rx="12.4654" ry="12.4654" fill="#C7FF29"/>
<ellipse cx="416.344" cy="306.44" rx="12.4654" ry="12.4654" fill="#C7FF29"/>
<ellipse cx="445.43" cy="306.44" rx="12.4654" ry="12.4654" fill="#C7FF29"/>
<ellipse cx="416.344" cy="335.526" rx="12.4654" ry="12.4654" fill="#C7FF29"/>
<ellipse cx="241.828" cy="277.354" rx="12.4654" ry="12.4654" fill="#C7FF29"/>
<ellipse cx="183.657" cy="277.354" rx="12.4654" ry="12.4654" fill="#C7FF29"/>
<ellipse cx="183.657" cy="248.269" rx="12.4654" ry="12.4654" fill="#C7FF29"/>
<ellipse cx="183.657" cy="306.44" rx="12.4654" ry="12.4654" fill="#C7FF29"/>
<ellipse cx="183.657" cy="335.526" rx="12.4654" ry="12.4654" fill="#C7FF29"/>
<ellipse cx="241.828" cy="306.44" rx="12.4654" ry="12.4654" fill="#C7FF29"/>
<ellipse cx="241.828" cy="335.526" rx="12.4654" ry="12.4654" fill="#C7FF29"/>
<ellipse cx="212.743" cy="219.183" rx="12.4654" ry="12.4654" fill="#C7FF29"/>
<ellipse cx="212.743" cy="248.269" rx="12.4654" ry="12.4654" fill="#C7FF29"/>
<ellipse cx="270.915" cy="248.269" rx="12.4654" ry="12.4654" fill="#C7FF29"/>
<ellipse cx="270.915" cy="277.354" rx="12.4654" ry="12.4654" fill="#C7FF29"/>
<ellipse cx="270.915" cy="306.44" rx="12.4654" ry="12.4654" fill="#C7FF29"/>
<ellipse cx="270.915" cy="335.526" rx="12.4654" ry="12.4654" fill="#C7FF29"/>
<ellipse cx="329.086" cy="248.269" rx="12.4654" ry="12.4654" fill="#C7FF29"/>
<ellipse cx="329.086" cy="219.183" rx="12.4654" ry="12.4654" fill="#C7FF29"/>
<ellipse cx="329.086" cy="190.097" rx="12.4654" ry="12.4654" fill="#C7FF29"/>
<ellipse cx="329.086" cy="277.354" rx="12.4654" ry="12.4654" fill="#C7FF29"/>
<ellipse cx="329.086" cy="306.44" rx="12.4654" ry="12.4654" fill="#C7FF29"/>
<ellipse cx="329.086" cy="335.526" rx="12.4654" ry="12.4654" fill="#C7FF29"/>
<ellipse cx="387.257" cy="248.269" rx="12.4654" ry="12.4654" fill="#C7FF29"/>
<ellipse cx="387.257" cy="219.183" rx="12.4654" ry="12.4654" fill="#C7FF29"/>
<ellipse cx="387.257" cy="190.097" rx="12.4654" ry="12.4654" fill="#C7FF29"/>
<ellipse cx="387.257" cy="277.354" rx="12.4654" ry="12.4654" fill="#C7FF29"/>
<ellipse cx="387.257" cy="306.44" rx="12.4654" ry="12.4654" fill="#C7FF29"/>
<ellipse cx="387.257" cy="335.526" rx="12.4654" ry="12.4654" fill="#C7FF29"/>
<ellipse cx="212.743" cy="277.354" rx="12.4654" ry="12.4654" fill="#C7FF29"/>
<ellipse cx="154.571" cy="277.354" rx="12.4654" ry="12.4654" fill="#C7FF29"/>
<ellipse cx="154.571" cy="306.44" rx="12.4654" ry="12.4654" fill="#C7FF29"/>
<ellipse cx="212.743" cy="306.44" rx="12.4654" ry="12.4654" fill="#C7FF29"/>
<ellipse cx="212.743" cy="335.526" rx="12.4654" ry="12.4654" fill="#C7FF29"/>
</svg>
